<svg width="31" height="27" viewBox="0 0 31 27" fill="none" xmlns="http://www.w3.org/2000/svg">
<path d="M28.7188 7.14883V2.65625C28.7188 2.07609 28.4883 1.51969 28.078 1.10945C27.6678 0.699218 27.1114 0.46875 26.5312 0.46875H2.46875C1.88859 0.46875 1.33219 0.699218 0.921954 1.10945C0.511718 1.51969 0.28125 2.07609 0.28125 2.65625V20.1562C0.28125 20.7364 0.511718 21.2928 0.921954 21.703C1.33219 22.1133 1.88859 22.3438 2.46875 22.3438H17.7812V25.625C17.7811 25.8115 17.8287 25.995 17.9195 26.158C18.0102 26.3209 18.1411 26.458 18.2998 26.5561C18.4585 26.6542 18.6396 26.7101 18.8259 26.7184C19.0122 26.7268 19.1976 26.6874 19.3645 26.6039L23.25 24.6598L27.1355 26.6039C27.3024 26.6874 27.4878 26.7268 27.6741 26.7184C27.8604 26.7101 28.0415 26.6542 28.2002 26.5561C28.3589 26.458 28.4898 26.3209 28.5805 26.158C28.6713 25.995 28.7189 25.8115 28.7188 25.625V17.8512C30.1209 16.4229 30.9064 14.5014 30.9064 12.5C30.9064 10.4986 30.1209 8.57706 28.7188 7.14883ZM14.5 14.6875H6.84375C6.55367 14.6875 6.27547 14.5723 6.07035 14.3671C5.86523 14.162 5.75 13.8838 5.75 13.5938C5.75 13.3037 5.86523 13.0255 6.07035 12.8204C6.27547 12.6152 6.55367 12.5 6.84375 12.5H14.5C14.7901 12.5 15.0683 12.6152 15.2734 12.8204C15.4785 13.0255 15.5938 13.3037 15.5938 13.5938C15.5938 13.8838 15.4785 14.162 15.2734 14.3671C15.0683 14.5723 14.7901 14.6875 14.5 14.6875ZM14.5 10.3125H6.84375C6.55367 10.3125 6.27547 10.1973 6.07035 9.99215C5.86523 9.78703 5.75 9.50883 5.75 9.21875C5.75 8.92867 5.86523 8.65047 6.07035 8.44535C6.27547 8.24023 6.55367 8.125 6.84375 8.125H14.5C14.7901 8.125 15.0683 8.24023 15.2734 8.44535C15.4785 8.65047 15.5938 8.92867 15.5938 9.21875C15.5938 9.50883 15.4785 9.78703 15.2734 9.99215C15.0683 10.1973 14.7901 10.3125 14.5 10.3125ZM26.5312 23.8559L23.7395 22.4586C23.5875 22.3826 23.4199 22.343 23.25 22.343C23.0801 22.343 22.9125 22.3826 22.7605 22.4586L19.9688 23.8559V19.4166C20.9941 19.9036 22.1149 20.1562 23.25 20.1562C24.3851 20.1562 25.5059 19.9036 26.5312 19.4166V23.8559ZM23.25 17.9688C22.1684 17.9688 21.1111 17.648 20.2117 17.0471C19.3124 16.4462 18.6114 15.5921 18.1975 14.5928C17.7836 13.5935 17.6753 12.4939 17.8863 11.4331C18.0973 10.3723 18.6182 9.39783 19.383 8.63301C20.1478 7.86819 21.1223 7.34734 22.1831 7.13633C23.2439 6.92532 24.3435 7.03362 25.3428 7.44753C26.3421 7.86145 27.1962 8.56239 27.7971 9.46173C28.398 10.3611 28.7188 11.4184 28.7188 12.5C28.7188 13.9504 28.1426 15.3414 27.117 16.367C26.0914 17.3926 24.7004 17.9688 23.25 17.9688Z" fill="#D10B05"/>
</svg>
