<svg width="34" height="25" viewBox="0 0 34 25" fill="none" xmlns="http://www.w3.org/2000/svg">
<path d="M29.0888 0.703526C28.8119 0.696007 28.5389 0.779884 28.292 0.976964C28.1866 1.06105 28.08 1.17411 27.9864 1.30167C26.421 3.43585 24.6861 5.22071 22.8467 6.83878C22.2479 7.84312 23.5778 9.87435 24.5963 9.87435C26.9304 8.9906 29.3553 8.33517 31.8937 8.07554C34.8077 7.77763 33.1028 3.41794 30.0992 4.96724C32.1705 3.4178 30.5842 0.743311 29.0888 0.703389V0.703526ZM20.2235 1.39348C19.8019 1.38609 19.3885 1.47359 19.0207 1.68606C18.9143 1.74766 18.8136 1.81845 18.7195 1.89763C18.7169 1.8938 18.7134 1.88874 18.7109 1.88491C13.2482 6.42411 10.7584 6.90714 7.8951 7.82151C7.42437 7.9719 7.05633 8.31233 6.76717 8.88108C6.47801 9.44983 6.29603 10.2375 6.2652 11.1455C6.20368 12.9613 6.73927 15.2421 7.88669 17.2315C9.02966 19.2133 10.8514 20.9192 12.5116 21.8202C13.3417 22.2707 14.1305 22.5152 14.7247 22.5336C15.3191 22.5521 15.676 22.4003 15.9403 22.0295C18.0585 19.0592 22.0477 17.3091 26.6151 15.7233C26.6148 15.7229 26.6153 15.7217 26.6151 15.7213C26.754 15.6761 26.8878 15.6166 27.0145 15.5439C27.575 15.22 27.9397 14.6623 28.1275 14.0315C28.3153 13.4007 28.3476 12.6814 28.2663 11.8953C28.2011 11.2641 28.0589 10.5877 27.8455 9.88727C27.4411 9.98065 27.0506 10.1031 26.6213 10.2612C26.8151 10.8935 26.9419 11.4902 26.9973 12.0255C27.0661 12.6914 27.0249 13.2601 26.9033 13.6684C26.7818 14.0767 26.6017 14.3068 26.3757 14.4375C26.1496 14.568 25.8601 14.6087 25.4464 14.5099C25.0327 14.4113 24.5201 14.1634 23.9787 13.771C22.896 12.9861 21.7 11.6366 20.7231 9.94284C19.7463 8.2489 19.1775 6.53595 19.0399 5.20458C18.9711 4.5389 19.0123 3.97227 19.1339 3.56396C19.2555 3.15565 19.4356 2.92343 19.6616 2.79286C19.7746 2.72744 19.9022 2.68485 20.0547 2.67105C20.0927 2.66763 20.1331 2.66647 20.1743 2.66674C20.298 2.6677 20.4357 2.68533 20.5909 2.72238C21.0044 2.82109 21.5149 3.06692 22.0563 3.4593C22.6181 3.86652 23.2105 4.42768 23.7867 5.10854C24.1333 4.83134 24.4252 4.54457 24.7032 4.20701C24.09 3.49197 23.4477 2.89041 22.8062 2.42543C22.1668 1.96195 21.5256 1.63178 20.8857 1.47906C20.7277 1.44112 20.5671 1.41541 20.4051 1.40216C20.3447 1.3975 20.2841 1.39467 20.2235 1.39368V1.39348ZM20.7681 3.73055C20.7382 3.73219 20.7093 3.73485 20.6806 3.73909C19.4962 3.91273 19.6573 6.20242 21.0245 8.83597C22.3917 11.4697 24.478 13.4554 25.6622 13.2815C26.0721 13.2214 26.2955 12.8928 26.3908 12.4014C26.2767 12.5509 26.1278 12.6396 25.9314 12.6685C24.8845 12.8221 23.0387 11.0898 21.8299 8.76132C20.6212 6.43273 20.5137 4.39247 21.5608 4.23887C21.8094 4.20264 22.0864 4.26737 22.4046 4.42904C21.8113 3.9642 21.2184 3.7056 20.7683 3.73055H20.7681ZM5.97262 16.2253C4.84094 16.3513 3.55927 16.4481 2.07183 16.5244C-1.28653 16.6969 0.32491 21.4173 4.12904 20.0941C0.75448 22.1381 4.39291 26.0364 5.97269 23.2899C6.68103 22.0584 7.4684 20.9801 8.32255 20.0214C7.74696 19.3622 7.22346 18.6389 6.78015 17.8701C6.47465 17.3405 6.2049 16.791 5.97269 16.2254L5.97262 16.2253Z" fill="#D10B05"/>
</svg>
