<svg width="27" height="27" viewBox="0 0 27 27" fill="none" xmlns="http://www.w3.org/2000/svg">
<path fill-rule="evenodd" clip-rule="evenodd" d="M20.7917 0.375C19.2446 0.375 17.7608 0.989581 16.6669 2.08354C15.5729 3.17751 14.9583 4.66124 14.9583 6.20833C14.9583 7.75543 15.5729 9.23916 16.6669 10.3331C17.7608 11.4271 19.2446 12.0417 20.7917 12.0417C22.3388 12.0417 23.8225 11.4271 24.9165 10.3331C26.0104 9.23916 26.625 7.75543 26.625 6.20833C26.625 4.66124 26.0104 3.17751 24.9165 2.08354C23.8225 0.989581 22.3388 0.375 20.7917 0.375ZM0.375 20.7917C0.375 19.2446 0.989581 17.7608 2.08354 16.6669C3.17751 15.5729 4.66124 14.9583 6.20833 14.9583C7.75543 14.9583 9.23916 15.5729 10.3331 16.6669C11.4271 17.7608 12.0417 19.2446 12.0417 20.7917C12.0417 22.3388 11.4271 23.8225 10.3331 24.9165C9.23916 26.0104 7.75543 26.625 6.20833 26.625C4.66124 26.625 3.17751 26.0104 2.08354 24.9165C0.989581 23.8225 0.375 22.3388 0.375 20.7917ZM14.9583 16.4167C14.9583 16.0299 15.112 15.659 15.3855 15.3855C15.659 15.112 16.0299 14.9583 16.4167 14.9583H25.1667C25.5534 14.9583 25.9244 15.112 26.1979 15.3855C26.4714 15.659 26.625 16.0299 26.625 16.4167V23.7083C26.625 24.4819 26.3177 25.2237 25.7707 25.7707C25.2237 26.3177 24.4819 26.625 23.7083 26.625H17.875C17.1015 26.625 16.3596 26.3177 15.8126 25.7707C15.2656 25.2237 14.9583 24.4819 14.9583 23.7083V16.4167ZM0.375 1.83333C0.375 1.44656 0.528645 1.07563 0.802136 0.802136C1.07563 0.528645 1.44656 0.375 1.83333 0.375H10.5833C10.9701 0.375 11.341 0.528645 11.6145 0.802136C11.888 1.07563 12.0417 1.44656 12.0417 1.83333V9.125C12.0417 9.89855 11.7344 10.6404 11.1874 11.1874C10.6404 11.7344 9.89855 12.0417 9.125 12.0417H3.29167C2.51812 12.0417 1.77625 11.7344 1.22927 11.1874C0.682291 10.6404 0.375 9.89855 0.375 9.125V1.83333Z" fill="#D10B05"/>
</svg>
