<svg width="35" height="25" viewBox="0 0 35 25" fill="none" xmlns="http://www.w3.org/2000/svg">
<path d="M4.37492 14.6875L3.28117 12.5H10.9374L10.0624 10.3125H2.91659L1.82284 8.12498H13.1978L12.3228 5.93748H1.61867L0.364502 3.74998H5.83325C5.83325 2.97643 6.14054 2.23457 6.68752 1.68758C7.23451 1.1406 7.97637 0.833313 8.74992 0.833313H26.2499V6.66665H30.6249L34.9999 12.5V19.7916H32.0833C32.0833 20.952 31.6223 22.0648 30.8018 22.8852C29.9814 23.7057 28.8686 24.1666 27.7083 24.1666C26.5479 24.1666 25.4351 23.7057 24.6147 22.8852C23.7942 22.0648 23.3333 20.952 23.3333 19.7916H17.4999C17.4999 20.952 17.039 22.0648 16.2185 22.8852C15.398 23.7057 14.2852 24.1666 13.1249 24.1666C11.9646 24.1666 10.8518 23.7057 10.0313 22.8852C9.21086 22.0648 8.74992 20.952 8.74992 19.7916H5.83325V14.6875H4.37492ZM27.7083 21.9791C28.2884 21.9791 28.8448 21.7487 29.255 21.3384C29.6653 20.9282 29.8958 20.3718 29.8958 19.7916C29.8958 19.2115 29.6653 18.6551 29.255 18.2449C28.8448 17.8346 28.2884 17.6041 27.7083 17.6041C27.1281 17.6041 26.5717 17.8346 26.1615 18.2449C25.7512 18.6551 25.5208 19.2115 25.5208 19.7916C25.5208 20.3718 25.7512 20.9282 26.1615 21.3384C26.5717 21.7487 27.1281 21.9791 27.7083 21.9791ZM29.8958 8.85415H26.2499V12.5H32.7541L29.8958 8.85415ZM13.1249 21.9791C13.7051 21.9791 14.2615 21.7487 14.6717 21.3384C15.082 20.9282 15.3124 20.3718 15.3124 19.7916C15.3124 19.2115 15.082 18.6551 14.6717 18.2449C14.2615 17.8346 13.7051 17.6041 13.1249 17.6041C12.5448 17.6041 11.9884 17.8346 11.5781 18.2449C11.1679 18.6551 10.9374 19.2115 10.9374 19.7916C10.9374 20.3718 11.1679 20.9282 11.5781 21.3384C11.9884 21.7487 12.5448 21.9791 13.1249 21.9791Z" fill="#D10B05"/>
</svg>
