<svg width="31" height="25" viewBox="0 0 31 25" fill="none" xmlns="http://www.w3.org/2000/svg">
<path d="M3.83329 0.833313C3.05974 0.833313 2.31788 1.1406 1.7709 1.68758C1.22392 2.23457 0.916626 2.97643 0.916626 3.74998V9.58331C1.69017 9.58331 2.43204 9.8906 2.97902 10.4376C3.526 10.9846 3.83329 11.7264 3.83329 12.5C3.83329 13.2735 3.526 14.0154 2.97902 14.5624C2.43204 15.1094 1.69017 15.4166 0.916626 15.4166V21.25C0.916626 22.0235 1.22392 22.7654 1.7709 23.3124C2.31788 23.8594 3.05974 24.1666 3.83329 24.1666H27.1666C27.9402 24.1666 28.682 23.8594 29.229 23.3124C29.776 22.7654 30.0833 22.0235 30.0833 21.25V15.4166C29.3097 15.4166 28.5679 15.1094 28.0209 14.5624C27.4739 14.0154 27.1666 13.2735 27.1666 12.5C27.1666 11.7264 27.4739 10.9846 28.0209 10.4376C28.5679 9.8906 29.3097 9.58331 30.0833 9.58331V3.74998C30.0833 2.97643 29.776 2.23457 29.229 1.68758C28.682 1.1406 27.9402 0.833313 27.1666 0.833313H3.83329ZM20.6041 5.20831L22.7916 7.39581L10.3958 19.7916L8.20829 17.6041L20.6041 5.20831ZM10.8479 5.26665C12.277 5.26665 13.4291 6.41873 13.4291 7.8479C13.4291 8.53249 13.1572 9.18904 12.6731 9.67312C12.189 10.1572 11.5325 10.4291 10.8479 10.4291C9.41871 10.4291 8.26663 9.27706 8.26663 7.8479C8.26663 7.16331 8.53858 6.50676 9.02266 6.02268C9.50673 5.5386 10.1633 5.26665 10.8479 5.26665ZM20.152 14.5708C21.5812 14.5708 22.7333 15.7229 22.7333 17.1521C22.7333 17.8367 22.4613 18.4932 21.9773 18.9773C21.4932 19.4614 20.8366 19.7333 20.152 19.7333C18.7229 19.7333 17.5708 18.5812 17.5708 17.1521C17.5708 16.4675 17.8427 15.8109 18.3268 15.3268C18.8109 14.8428 19.4675 14.5708 20.152 14.5708Z" fill="#D10B05"/>
</svg>
