<svg width="91" height="23" viewBox="0 0 91 23" fill="none" xmlns="http://www.w3.org/2000/svg">
<path d="M11.5002 16.5504L15.4773 18.9558C16.2056 19.3966 17.0969 18.7449 16.9052 17.9208L15.8511 13.3974L19.3681 10.3499C20.0102 9.79411 19.6652 8.73994 18.8219 8.67285L14.1931 8.27994L12.3819 4.00577C12.0561 3.22952 10.9444 3.22952 10.6186 4.00577L8.80731 8.27036L4.17856 8.66327C3.33522 8.73035 2.99022 9.78452 3.63231 10.3404L7.14939 13.3879L6.09522 17.9112C5.90356 18.7354 6.79481 19.387 7.52314 18.9462L11.5002 16.5504Z" fill="#FA4742"/>
<path d="M35.5002 16.5504L39.4773 18.9558C40.2056 19.3966 41.0969 18.7449 40.9052 17.9208L39.8511 13.3974L43.3681 10.3499C44.0102 9.79411 43.6652 8.73994 42.8219 8.67285L38.1931 8.27994L36.3819 4.00577C36.0561 3.22952 34.9444 3.22952 34.6186 4.00577L32.8073 8.27036L28.1786 8.66327C27.3352 8.73035 26.9902 9.78452 27.6323 10.3404L31.1494 13.3879L30.0952 17.9112C29.9036 18.7354 30.7948 19.387 31.5231 18.9462L35.5002 16.5504Z" fill="#FA4742"/>
<path d="M59.5002 16.5504L63.4773 18.9558C64.2056 19.3966 65.0969 18.7449 64.9052 17.9208L63.8511 13.3974L67.3681 10.3499C68.0102 9.79411 67.6652 8.73994 66.8219 8.67285L62.1931 8.27994L60.3819 4.00577C60.0561 3.22952 58.9444 3.22952 58.6186 4.00577L56.8073 8.27036L52.1786 8.66327C51.3352 8.73035 50.9902 9.78452 51.6323 10.3404L55.1494 13.3879L54.0952 17.9112C53.9036 18.7354 54.7948 19.387 55.5231 18.9462L59.5002 16.5504Z" fill="#FA4742"/>
<g clip-path="url(#clip0_200_1592)">
<path d="M82.5 3.70826C82.6155 3.70869 82.729 3.73755 82.8307 3.79228C82.9324 3.847 83.019 3.92591 83.083 4.02205L83.1304 4.10421L85.1506 8.19909L89.6697 8.8543C90.1946 8.9308 90.4347 9.52013 90.1677 9.93521L90.1181 10.0025L90.0629 10.0634L86.7875 13.2502L87.5596 17.7517C87.5797 17.8691 87.5699 17.9897 87.5311 18.1023C87.4923 18.215 87.4258 18.316 87.3376 18.3961C87.2494 18.4762 87.1425 18.5329 87.0267 18.5607C86.9109 18.5886 86.7899 18.5869 86.6749 18.5556L86.6034 18.5308L86.5318 18.4983L82.4993 16.3733L78.4575 18.4983C78.3832 18.5372 78.3074 18.562 78.2309 18.5733L78.1558 18.5804C78.0569 18.584 77.9584 18.567 77.8665 18.5303C77.7746 18.4936 77.6914 18.4382 77.6222 18.3675C77.553 18.2968 77.4993 18.2125 77.4646 18.1198C77.4299 18.0272 77.4149 17.9284 77.4205 17.8296L77.4297 17.7517L78.2018 13.2502L74.9272 10.0627C74.8425 9.98023 74.7798 9.87789 74.7448 9.765C74.7097 9.6521 74.7035 9.53224 74.7265 9.41631C74.7496 9.30037 74.8013 9.19205 74.877 9.1012C74.9526 9.01034 75.0497 8.93983 75.1595 8.89609L75.2396 8.87059L75.3203 8.8543L79.8388 8.19909L81.8597 4.10492C81.916 3.98352 82.0067 3.88127 82.1205 3.81079C82.2343 3.7403 82.3662 3.70466 82.5 3.70826ZM82.5 6.02734V14.8645C82.557 14.8645 82.6139 14.8714 82.6693 14.885L82.7507 14.9105L82.8301 14.946L85.9205 16.5744L85.3284 13.1227C85.2992 12.9521 85.3334 12.7768 85.4247 12.6297L85.4743 12.5596L85.5324 12.4958L88.0441 10.05L84.5797 9.54846C84.4084 9.52361 84.2522 9.43693 84.1405 9.3048L84.0888 9.23609L84.0463 9.16101L82.5 6.02734Z" fill="#FA4742"/>
</g>
<defs>
<clipPath id="clip0_200_1592">
<rect width="17" height="17" fill="white" transform="translate(74 3)"/>
</clipPath>
</defs>
</svg>
