<svg width="20" height="20" viewBox="0 0 20 20" fill="none" xmlns="http://www.w3.org/2000/svg">
<g clip-path="url(#clip0_80_230)">
<path d="M15.5555 16.6666H8.88887V12.2222H7.77776V16.6666H4.44442V12.2222H3.33331V16.6666C3.33331 16.9613 3.45038 17.2439 3.65875 17.4523C3.86712 17.6607 4.14974 17.7777 4.44442 17.7777H15.5555C15.8502 17.7777 16.1328 17.6607 16.3412 17.4523C16.5496 17.2439 16.6666 16.9613 16.6666 16.6666V12.2222H15.5555V16.6666Z" fill="#999999"/>
<path d="M18.7722 7.37217L16.5055 2.83883C16.4135 2.65372 16.2717 2.49793 16.0961 2.38899C15.9204 2.28005 15.7178 2.22228 15.5111 2.22217H4.48887C4.28216 2.22228 4.07957 2.28005 3.9039 2.38899C3.72822 2.49793 3.58641 2.65372 3.49443 2.83883L1.22776 7.37217C1.15037 7.52744 1.11041 7.69868 1.11109 7.87217V9.58328C1.11059 9.84289 1.201 10.0945 1.36665 10.2944C1.61146 10.575 1.91381 10.7997 2.25317 10.953C2.59252 11.1064 2.96091 11.1849 3.33331 11.1833C3.94096 11.1842 4.53008 10.9741 4.99998 10.5888C5.46988 10.9743 6.05887 11.185 6.66665 11.185C7.27443 11.185 7.86342 10.9743 8.33331 10.5888C8.80321 10.9743 9.3922 11.185 9.99998 11.185C10.6078 11.185 11.1968 10.9743 11.6666 10.5888C12.1365 10.9743 12.7255 11.185 13.3333 11.185C13.9411 11.185 14.5301 10.9743 15 10.5888C15.5245 11.0195 16.1956 11.2301 16.8721 11.1762C17.5487 11.1223 18.178 10.8082 18.6278 10.2999C18.7954 10.1008 18.8878 9.84914 18.8889 9.58884V7.87217C18.8896 7.69868 18.8496 7.52744 18.7722 7.37217ZM8.33331 7.99995V8.84439L7.87776 9.44439C7.73791 9.635 7.55515 9.79 7.34426 9.89684C7.13337 10.0037 6.90028 10.0593 6.66387 10.0593C6.42746 10.0593 6.19438 10.0037 5.98349 9.89684C5.7726 9.79 5.58983 9.635 5.44998 9.44439L4.99998 8.82217V7.99995L6.43887 3.33328H8.88887L8.33331 7.99995ZM15 8.82217L14.55 9.44439C14.4101 9.635 14.2274 9.79 14.0165 9.89684C13.8056 10.0037 13.5725 10.0593 13.3361 10.0593C13.0997 10.0593 12.8666 10.0037 12.6557 9.89684C12.4448 9.79 12.262 9.635 12.1222 9.44439L11.6666 8.82217V7.99995L11.1111 3.33328H13.5833L15 7.99995V8.82217Z" fill="#999999"/>
</g>
<defs>
<clipPath id="clip0_80_230">
<rect width="20" height="20" fill="white"/>
</clipPath>
</defs>
</svg>
