<svg width="20" height="20" viewBox="0 0 20 20" fill="none" xmlns="http://www.w3.org/2000/svg">
<path d="M17.5 14.025V9.30247C17.5 8.43247 17.5 7.99747 17.2642 7.66997C17.0733 7.40581 16.7675 7.26497 16.2225 7.07581C16.1108 8.41414 15.6675 9.78164 14.9708 10.9775C14.1608 12.3708 12.9567 13.6166 11.4142 14.2891C10.968 14.4832 10.4866 14.5833 10 14.5833C9.51342 14.5833 9.03204 14.4832 8.58583 14.2891C7.04333 13.6166 5.83917 12.3708 5.02833 10.9775C4.50006 10.0685 4.12451 9.07893 3.91667 8.04831C3.5975 8.00081 3.35333 8.02497 3.14167 8.14247C3.05763 8.18968 2.97933 8.24644 2.90833 8.31164C2.5 8.68331 2.5 9.37414 2.5 10.7566V14.865C2.5 15.7341 2.5 16.1691 2.73583 16.4966C2.97167 16.8241 3.38417 16.9616 4.20917 17.2366L4.52917 17.3433C5.84333 17.7808 6.5 18 7.1725 18.0016C7.375 18.0016 7.57667 17.9875 7.7775 17.9583C8.4425 17.8625 9.0675 17.55 10.3175 16.925C11.275 16.4458 11.7542 16.2066 12.2625 16.0958C12.4408 16.0566 12.6217 16.0291 12.8042 16.0141C13.3233 15.9708 13.8458 16.0583 14.8933 16.2325C15.9542 16.4091 16.485 16.4975 16.8725 16.275C17.0042 16.2 17.1208 16.1008 17.2167 15.9833C17.5 15.6375 17.5 15.1 17.5 14.025Z" fill="#D10B05"/>
<path fill-rule="evenodd" clip-rule="evenodd" d="M10 1.66663C7.23833 1.66663 5 3.79329 5 6.41663C5 9.01996 6.59583 12.0575 9.08583 13.1433C9.37433 13.2685 9.68549 13.3331 10 13.3331C10.3145 13.3331 10.6257 13.2685 10.9142 13.1433C13.4042 12.0583 15 9.01996 15 6.41663C15 3.79329 12.7617 1.66663 10 1.66663ZM10 8.33329C10.442 8.33329 10.866 8.1577 11.1785 7.84514C11.4911 7.53258 11.6667 7.10865 11.6667 6.66663C11.6667 6.2246 11.4911 5.80067 11.1785 5.48811C10.866 5.17555 10.442 4.99996 10 4.99996C9.55797 4.99996 9.13405 5.17555 8.82149 5.48811C8.50893 5.80067 8.33333 6.2246 8.33333 6.66663C8.33333 7.10865 8.50893 7.53258 8.82149 7.84514C9.13405 8.1577 9.55797 8.33329 10 8.33329Z" fill="#D10B05"/>
</svg>
