<svg width="22" height="22" viewBox="0 0 22 22" fill="none" xmlns="http://www.w3.org/2000/svg">
<path d="M20.1657 7.33334C20.1658 7.16698 20.1205 7.00376 20.0346 6.86126L17.5514 2.72251C17.3878 2.45195 17.1573 2.22804 16.8822 2.07231C16.607 1.91659 16.2964 1.83429 15.9802 1.83334H6.0179C5.37806 1.83334 4.77581 2.17434 4.44673 2.72343L1.96348 6.86126C1.87763 7.00376 1.83231 7.16698 1.8324 7.33334C1.8324 8.25459 2.18623 9.08784 2.74906 9.73318V18.3333C2.74906 18.5765 2.84564 18.8096 3.01755 18.9815C3.18946 19.1534 3.42262 19.25 3.66573 19.25H10.9991C11.2422 19.25 11.4753 19.1534 11.6472 18.9815C11.8192 18.8096 11.9157 18.5765 11.9157 18.3333V13.75H15.5824V18.3333C15.5824 18.5765 15.679 18.8096 15.8509 18.9815C16.0228 19.1534 16.2559 19.25 16.4991 19.25H18.3324C18.5755 19.25 18.8087 19.1534 18.9806 18.9815C19.1525 18.8096 19.2491 18.5765 19.2491 18.3333V9.73318C19.8119 9.08784 20.1657 8.25459 20.1657 7.33334ZM18.3177 7.56343C18.2613 8.00609 18.0456 8.41304 17.7108 8.70814C17.3761 9.00323 16.9453 9.16624 16.4991 9.16668C15.488 9.16668 14.6657 8.34443 14.6657 7.33334C14.6657 7.27101 14.6428 7.21601 14.63 7.15734L14.6483 7.15368L13.9507 3.66668H15.9802L18.3177 7.56343ZM9.17215 7.39293L9.91648 3.66668H12.0807L12.826 7.39293C12.7939 8.37651 11.9891 9.16668 10.9991 9.16668C10.0091 9.16668 9.20423 8.37651 9.17215 7.39293ZM6.0179 3.66668H8.0474L7.35073 7.15368L7.36906 7.15734C7.35531 7.21601 7.3324 7.27101 7.3324 7.33334C7.3324 8.34443 6.51015 9.16668 5.49906 9.16668C5.05282 9.16624 4.62203 9.00323 4.28729 8.70814C3.95254 8.41304 3.73679 8.00609 3.6804 7.56343L6.0179 3.66668ZM9.16573 14.6667H5.49906V11.9167H9.16573V14.6667Z" fill="white"/>
</svg>
