<svg width="28" height="28" viewBox="0 0 28 28" fill="none" xmlns="http://www.w3.org/2000/svg">
<path d="M25.6656 9.33334C25.6657 9.12161 25.608 8.91387 25.4988 8.73251L22.3383 3.46501C22.1301 3.12066 21.8368 2.83568 21.4865 2.63748C21.1363 2.43929 20.741 2.33455 20.3386 2.33334H7.65928C6.84494 2.33334 6.07844 2.76734 5.65961 3.46618L2.49911 8.73251C2.38985 8.91387 2.33217 9.12161 2.33228 9.33334C2.33228 10.5058 2.78261 11.5663 3.49894 12.3877V23.3333C3.49894 23.6428 3.62186 23.9395 3.84065 24.1583C4.05944 24.3771 4.35619 24.5 4.66561 24.5H13.9989C14.3084 24.5 14.6051 24.3771 14.8239 24.1583C15.0427 23.9395 15.1656 23.6428 15.1656 23.3333V17.5H19.8323V23.3333C19.8323 23.6428 19.9552 23.9395 20.174 24.1583C20.3928 24.3771 20.6895 24.5 20.9989 24.5H23.3323C23.6417 24.5 23.9384 24.3771 24.1572 24.1583C24.376 23.9395 24.4989 23.6428 24.4989 23.3333V12.3877C25.2153 11.5663 25.6656 10.5058 25.6656 9.33334ZM23.3136 9.62618C23.2418 10.1896 22.9672 10.7075 22.5412 11.0831C22.1152 11.4587 21.5669 11.6661 20.9989 11.6667C19.7121 11.6667 18.6656 10.6202 18.6656 9.33334C18.6656 9.25401 18.6364 9.18401 18.6201 9.10934L18.6434 9.10468L17.7556 4.66668H20.3386L23.3136 9.62618ZM11.6738 9.40918L12.6211 4.66668H15.3756L16.3241 9.40918C16.2833 10.661 15.2589 11.6667 13.9989 11.6667C12.7389 11.6667 11.7146 10.661 11.6738 9.40918ZM7.65928 4.66668H10.2423L9.35561 9.10468L9.37894 9.10934C9.36144 9.18401 9.33228 9.25401 9.33228 9.33334C9.33228 10.6202 8.28578 11.6667 6.99894 11.6667C6.431 11.6661 5.88271 11.4587 5.45668 11.0831C5.03064 10.7075 4.75605 10.1896 4.68428 9.62618L7.65928 4.66668ZM11.6656 18.6667H6.99894V15.1667H11.6656V18.6667Z" fill="#D10B05"/>
</svg>
