<svg width="369" height="17" viewBox="0 0 369 17" fill="none" xmlns="http://www.w3.org/2000/svg">
<path d="M170.979 14H169.348L173.012 3.81818H174.787L178.451 14H176.82L173.942 5.66761H173.862L170.979 14ZM171.252 10.0128H176.542V11.3054H171.252V10.0128ZM182.958 6.36364V7.55682H178.787V6.36364H182.958ZM179.906 4.53409H181.392V11.7578C181.392 12.0462 181.435 12.2633 181.521 12.4091C181.608 12.5516 181.719 12.6494 181.854 12.7024C181.994 12.7521 182.144 12.777 182.307 12.777C182.426 12.777 182.531 12.7687 182.62 12.7521C182.71 12.7356 182.779 12.7223 182.829 12.7124L183.097 13.9403C183.011 13.9735 182.889 14.0066 182.729 14.0398C182.57 14.0762 182.371 14.0961 182.133 14.0994C181.742 14.1061 181.377 14.0365 181.039 13.8906C180.701 13.7448 180.428 13.5194 180.219 13.2145C180.01 12.9096 179.906 12.5268 179.906 12.0661V4.53409ZM186.895 14.169C186.411 14.169 185.973 14.0795 185.582 13.9006C185.191 13.7183 184.881 13.4548 184.653 13.1101C184.427 12.7654 184.315 12.3428 184.315 11.8423C184.315 11.4115 184.397 11.0568 184.563 10.7784C184.729 10.5 184.953 10.2796 185.234 10.1172C185.516 9.95478 185.831 9.83215 186.179 9.74929C186.527 9.66643 186.882 9.60346 187.243 9.56037C187.7 9.50734 188.071 9.46425 188.356 9.43111C188.641 9.39465 188.849 9.33665 188.978 9.2571C189.107 9.17756 189.172 9.0483 189.172 8.86932V8.83452C189.172 8.40033 189.049 8.06392 188.804 7.82528C188.562 7.58665 188.201 7.46733 187.72 7.46733C187.22 7.46733 186.825 7.57836 186.537 7.80043C186.252 8.01918 186.055 8.26278 185.945 8.53125L184.548 8.21307C184.714 7.74905 184.956 7.37453 185.274 7.08949C185.596 6.80114 185.965 6.59233 186.383 6.46307C186.8 6.33049 187.239 6.2642 187.7 6.2642C188.005 6.2642 188.328 6.30066 188.67 6.37358C189.014 6.44318 189.336 6.57244 189.634 6.76136C189.936 6.95028 190.183 7.22041 190.375 7.57173C190.567 7.91974 190.663 8.37216 190.663 8.92898V14H189.212V12.956H189.152C189.056 13.1482 188.912 13.3371 188.719 13.5227C188.527 13.7083 188.28 13.8625 187.979 13.9851C187.677 14.1077 187.316 14.169 186.895 14.169ZM187.218 12.9759C187.629 12.9759 187.98 12.8946 188.272 12.7322C188.567 12.5698 188.791 12.3577 188.943 12.0959C189.099 11.8307 189.177 11.5473 189.177 11.2457V10.2614C189.124 10.3144 189.021 10.3641 188.869 10.4105C188.719 10.4536 188.549 10.4917 188.356 10.5249C188.164 10.5547 187.977 10.5829 187.795 10.6094C187.612 10.6326 187.46 10.6525 187.337 10.669C187.049 10.7055 186.785 10.7668 186.547 10.853C186.311 10.9392 186.123 11.0634 185.98 11.2259C185.841 11.3849 185.771 11.5971 185.771 11.8622C185.771 12.2301 185.907 12.5085 186.179 12.6974C186.451 12.883 186.797 12.9759 187.218 12.9759ZM197.551 10.8331V6.36364H199.042V14H197.58V12.6776H197.501C197.325 13.0852 197.043 13.425 196.656 13.6967C196.271 13.9652 195.792 14.0994 195.219 14.0994C194.728 14.0994 194.294 13.9917 193.916 13.7763C193.542 13.5575 193.247 13.2344 193.031 12.8068C192.819 12.3793 192.713 11.8506 192.713 11.2209V6.36364H194.2V11.0419C194.2 11.5623 194.344 11.9766 194.632 12.2848C194.921 12.593 195.295 12.7472 195.756 12.7472C196.034 12.7472 196.311 12.6776 196.586 12.5384C196.864 12.3991 197.095 12.1887 197.277 11.907C197.463 11.6252 197.554 11.2673 197.551 10.8331Z" fill="#CCCCCC"/>
<line y1="8.5" x2="162" y2="8.5" stroke="#CCCCCC"/>
<line x1="207" y1="8.5" x2="369" y2="8.5" stroke="#CCCCCC"/>
</svg>
