<svg width="23" height="23" viewBox="0 0 23 23" fill="none" xmlns="http://www.w3.org/2000/svg">
<g clip-path="url(#clip0_139_103)">
<path d="M8.01234 0.756458C5.71428 1.55368 3.73244 3.06682 2.35792 5.07363C0.983393 7.08045 0.288637 9.47515 0.375697 11.906C0.462757 14.3369 1.32705 16.6757 2.84161 18.5791C4.35618 20.4824 6.44119 21.8499 8.79039 22.4807C10.6949 22.9721 12.6903 22.9937 14.6051 22.5436C16.3396 22.1539 17.9433 21.3206 19.259 20.125C20.6283 18.8426 21.6223 17.2113 22.134 15.4064C22.69 13.4436 22.7889 11.3795 22.4233 9.37247H11.7283V13.809H17.9221C17.7983 14.5165 17.533 15.1919 17.1422 15.7946C16.7513 16.3972 16.2429 16.9149 15.6473 17.3165C14.891 17.817 14.0384 18.1536 13.1442 18.3047C12.2475 18.4715 11.3277 18.4715 10.4309 18.3047C9.52199 18.117 8.66216 17.7419 7.90632 17.2033C6.6919 16.3436 5.78004 15.1223 5.30086 13.7137C4.8137 12.2787 4.8137 10.723 5.30086 9.28802C5.64195 8.28216 6.20582 7.36633 6.95039 6.60888C7.80245 5.72616 8.88119 5.09519 10.0682 4.78519C11.2553 4.47519 12.5048 4.49815 13.6797 4.85154C14.5975 5.13315 15.4368 5.62541 16.1306 6.28904C16.829 5.59424 17.5262 4.89766 18.2222 4.19927C18.5816 3.82372 18.9733 3.46615 19.3273 3.08161C18.2681 2.09606 17.0249 1.32913 15.6688 0.824739C13.1994 -0.0719195 10.4974 -0.0960164 8.01234 0.756458Z" fill="white"/>
<path d="M8.01218 0.756477C10.497 -0.0965771 13.199 -0.0731145 15.6687 0.822961C17.0249 1.33078 18.2676 2.1014 19.3253 3.09062C18.9659 3.47515 18.5868 3.83452 18.2202 4.20827C17.523 4.90426 16.8264 5.59786 16.1305 6.28906C15.4367 5.62543 14.5974 5.13317 13.6795 4.85156C12.505 4.49693 11.2556 4.47264 10.0682 4.78137C8.88082 5.0901 7.80142 5.71992 6.94843 6.60171C6.20386 7.35916 5.63999 8.27499 5.2989 9.28085L1.57397 6.39687C2.90727 3.75288 5.21579 1.73043 8.01218 0.756477Z" fill="#E33629"/>
<path d="M0.585844 9.25388C0.785908 8.2616 1.1183 7.30067 1.57413 6.39685L5.29905 9.28802C4.8119 10.723 4.8119 12.2787 5.29905 13.7137C4.05801 14.6721 2.81637 15.6352 1.57413 16.6031C0.433381 14.3324 0.0854735 11.7453 0.585844 9.25388Z" fill="#F8BD00"/>
<path d="M11.7281 9.37073H22.4231C22.7887 11.3777 22.6898 13.4418 22.1338 15.4046C21.6221 17.2096 20.6282 18.8409 19.2588 20.1232C18.0567 19.1853 16.8492 18.2545 15.6471 17.3165C16.2431 16.9145 16.7517 16.3963 17.1426 15.793C17.5335 15.1897 17.7986 14.5136 17.9219 13.8054H11.7281C11.7263 12.3284 11.7281 10.8496 11.7281 9.37073Z" fill="#587DBD"/>
<path d="M1.57227 16.6031C2.81451 15.6448 4.05615 14.6817 5.29719 13.7137C5.77733 15.1229 6.69049 16.3442 7.90625 17.2033C8.66444 17.7394 9.52613 18.1115 10.4363 18.2958C11.333 18.4626 12.2528 18.4626 13.1495 18.2958C14.0437 18.1446 14.8963 17.808 15.6526 17.3075C16.8547 18.2455 18.0622 19.1762 19.2643 20.1142C17.9488 21.3104 16.3451 22.1445 14.6104 22.5346C12.6957 22.9847 10.7003 22.9632 8.7957 22.4717C7.28939 22.0695 5.88239 21.3605 4.66289 20.3891C3.37225 19.3642 2.31803 18.0728 1.57227 16.6031Z" fill="#319F43"/>
</g>
<defs>
<clipPath id="clip0_139_103">
<rect width="23" height="23" fill="white"/>
</clipPath>
</defs>
</svg>
