<svg width="30" height="30" viewBox="0 0 30 30" fill="none" xmlns="http://www.w3.org/2000/svg">
<circle cx="15" cy="15" r="15" fill="#00ACED"/>
<path d="M22.845 10.5C22.2675 10.7625 21.645 10.935 21 11.0175C21.66 10.62 22.17 9.99 22.41 9.2325C21.7875 9.6075 21.0975 9.87 20.37 10.02C19.7775 9.375 18.945 9 18 9C16.2375 9 14.7975 10.44 14.7975 12.2175C14.7975 12.4725 14.8275 12.72 14.88 12.9525C12.21 12.8175 9.83253 11.535 8.25003 9.5925C7.97253 10.065 7.81503 10.62 7.81503 11.205C7.81503 12.3225 8.37753 13.3125 9.24753 13.875C8.71503 13.875 8.22003 13.725 7.78503 13.5V13.5225C7.78503 15.0825 8.89503 16.3875 10.365 16.68C9.89307 16.8092 9.3976 16.8271 8.91753 16.7325C9.12123 17.3719 9.52018 17.9313 10.0583 18.3322C10.5964 18.7331 11.2466 18.9553 11.9175 18.9675C10.7803 19.8678 9.37053 20.3545 7.92003 20.3475C7.66503 20.3475 7.41003 20.3325 7.15503 20.3025C8.58003 21.2175 10.275 21.75 12.09 21.75C18 21.75 21.2475 16.845 21.2475 12.5925C21.2475 12.45 21.2475 12.315 21.24 12.1725C21.87 11.7225 22.41 11.1525 22.845 10.5Z" fill="white"/>
</svg>
