<svg width="30" height="30" viewBox="0 0 30 30" fill="none" xmlns="http://www.w3.org/2000/svg">
<circle cx="15" cy="15" r="15" fill="#CB2027"/>
<path d="M13.5 17.25L17.3925 15L13.5 12.75V17.25ZM22.17 11.3775C22.2675 11.73 22.335 12.2025 22.38 12.8025C22.4325 13.4025 22.455 13.92 22.455 14.37L22.5 15C22.5 16.6425 22.38 17.85 22.17 18.6225C21.9825 19.2975 21.5475 19.7325 20.8725 19.92C20.52 20.0175 19.875 20.085 18.885 20.13C17.91 20.1825 17.0175 20.205 16.1925 20.205L15 20.25C11.8575 20.25 9.9 20.13 9.1275 19.92C8.4525 19.7325 8.0175 19.2975 7.83 18.6225C7.7325 18.27 7.665 17.7975 7.62 17.1975C7.5675 16.5975 7.545 16.08 7.545 15.63L7.5 15C7.5 13.3575 7.62 12.15 7.83 11.3775C8.0175 10.7025 8.4525 10.2675 9.1275 10.08C9.48 9.9825 10.125 9.915 11.115 9.87C12.09 9.8175 12.9825 9.795 13.8075 9.795L15 9.75C18.1425 9.75 20.1 9.87 20.8725 10.08C21.5475 10.2675 21.9825 10.7025 22.17 11.3775Z" fill="white"/>
</svg>
